<?xml version="1.0" encoding="UTF-8"?>
<svg width="334px" height="350px" viewBox="0 0 334 350" version="1.1" xmlns="http://www.w3.org/2000/svg" xmlns:xlink="http://www.w3.org/1999/xlink">
    <!-- Generator: Sketch 49.2 (51160) - http://www.bohemiancoding.com/sketch -->
    <title>tomato_icon</title>
    <desc>Created with Sketch.</desc>
    <defs></defs>
    <g id="Page-1" stroke="none" stroke-width="1" fill="none" fill-rule="evenodd">
        <g id="tomato_icon" fill-rule="nonzero">
            <polygon id="Shape" fill="#AFAFAF" points="252.891 95.497 193.691 71.407 166.891 110.187 140.091 71.407 80.891 95.497 112.451 46.807 115.891 41.497 102.891 7.497 166.891 36.497 230.891 7.497 217.891 41.497 221.491 47.057"></polygon>
            <path d="M269.161,61.317 C303.901,90.497 325.981,134.267 325.981,183.187 C325.981,271.047 254.751,342.277 166.891,342.277 C79.021,342.277 7.791,271.047 7.791,183.187 C7.791,133.757 30.331,89.597 65.691,60.417 C79.511,49.017 95.291,46.487 112.451,46.807 L80.891,95.497 L140.091,71.407 L166.891,110.187 L193.691,71.407 L252.891,95.497 L221.491,47.057 C239.031,46.837 255.121,49.527 269.161,61.317 Z" id="Shape" fill="#D6D5D5"></path>
            <path d="M89.791,183.187 C89.791,141.082 106.154,102.807 132.857,74.351 L80.891,95.497 L112.451,46.807 C95.291,46.487 79.511,49.017 65.691,60.417 C30.331,89.597 7.791,133.757 7.791,183.187 C7.791,271.047 79.021,342.277 166.891,342.277 C181.068,342.277 194.808,340.412 207.889,336.933 C139.893,318.847 89.791,256.87 89.791,183.187 Z" id="Shape" fill="#B1B1B1"></path>
            <path d="M238.661,306.278 C236.157,306.278 233.711,305.025 232.289,302.743 C230.099,299.227 231.173,294.602 234.688,292.411 C272.753,268.692 295.48,227.86 295.48,183.185 C295.48,162.091 290.25,141.149 280.354,122.623 C278.402,118.969 279.782,114.425 283.436,112.474 C287.092,110.521 291.634,111.904 293.584,115.556 C304.637,136.249 310.48,159.635 310.48,183.185 C310.48,207.988 304.024,232.455 291.808,253.94 C279.971,274.761 262.962,292.465 242.62,305.141 C241.387,305.912 240.016,306.278 238.661,306.278 Z" id="Shape" fill="#FFFFFF"></path>
            <polygon id="Shape" fill="#C8C8C8" points="172.891 60.157 166.891 110.187 140.091 71.407 80.891 95.497 112.451 46.807 115.891 41.497 102.891 7.497 166.891 36.497 149.891 51.157"></polygon>
            <circle id="Oval" fill="#FFFFFF" cx="274.86" cy="100.727" r="7.5"></circle>
            <path d="M273.986,55.571 C258.564,42.62 241.126,39.887 226.652,39.576 L237.893,10.179 C238.978,7.339 238.242,4.124 236.028,2.04 C233.815,-0.045 230.562,-0.586 227.792,0.669 L166.89,28.267 L105.989,0.669 C103.218,-0.585 99.966,-0.044 97.753,2.04 C95.539,4.124 94.803,7.339 95.888,10.179 L107.022,39.3 C92.9,39.558 75.993,42.196 60.919,54.63 C22.39,86.425 0.292,133.282 0.292,183.185 C0.292,275.043 75.028,349.775 166.893,349.775 C258.751,349.775 333.483,275.043 333.483,183.185 C333.483,133.845 311.797,87.332 273.986,55.571 Z M163.794,43.332 C165.761,44.223 168.019,44.223 169.985,43.332 L217.366,21.861 L210.881,38.821 C210.027,41.058 210.29,43.569 211.593,45.579 L233.618,79.56 L196.515,64.46 C193.258,63.134 189.517,64.251 187.518,67.143 L166.89,96.993 L146.262,67.143 C144.827,65.067 142.495,63.906 140.089,63.906 C139.143,63.906 138.185,64.086 137.265,64.46 L100.161,79.561 L122.186,45.58 C123.489,43.57 123.752,41.059 122.898,38.822 L116.413,21.862 L163.794,43.332 Z M166.893,334.775 C83.3,334.775 15.292,266.772 15.292,183.185 C15.292,137.775 35.402,95.135 70.465,66.201 C78.126,59.882 86.842,56.286 98.254,54.925 L74.599,91.421 C72.818,94.17 73.026,97.756 75.114,100.281 C77.203,102.805 80.687,103.68 83.72,102.447 L137.344,80.622 L160.72,114.448 C162.12,116.475 164.427,117.684 166.89,117.684 C169.353,117.684 171.66,116.475 173.06,114.448 L196.436,80.622 L250.06,102.447 C253.09,103.682 256.578,102.804 258.666,100.281 C260.754,97.757 260.962,94.17 259.181,91.421 L235.738,55.253 C247.538,56.705 256.486,60.463 264.338,67.058 C298.748,95.96 318.483,138.287 318.483,183.185 C318.483,266.772 250.48,334.775 166.893,334.775 Z" id="Shape" fill="#BDBDBD"></path>
        </g>
    </g>
</svg>